<svg width="440" height="316" viewBox="0 0 440 316" fill="none" xmlns="http://www.w3.org/2000/svg">
<g clip-path="url(#clip0_1404_1811)">
<path opacity="0.1" d="M433.033 212.258C422.828 233.31 402.106 247.387 380.632 256.67C351.721 269.172 319.884 274.131 288.485 272.034C282.982 271.668 277.496 271.083 272.027 270.279C253.031 267.507 234.512 262.115 216.998 254.254C211.944 251.978 206.992 249.493 202.142 246.799C194.042 242.31 186.28 237.234 178.92 231.612C177.069 230.199 175.243 228.75 173.443 227.265C172.195 226.235 170.958 225.183 169.702 224.161C167.052 222.006 164.325 219.959 161.283 218.427C160.365 217.964 159.424 217.549 158.463 217.182C148.83 213.518 137.723 214.901 127.694 217.758C120.066 219.932 112.63 222.909 105.01 225.033C101.62 226.007 98.1665 226.741 94.674 227.23C86.8766 228.217 78.9581 227.522 71.452 225.19L70.8106 224.991C69.7352 224.653 68.6687 224.283 67.6112 223.881L66.9697 223.635C65.9455 223.241 64.943 222.817 63.9623 222.364L63.3209 222.072C62.2967 221.595 61.2942 221.092 60.3135 220.562C59.9601 220.378 59.6106 220.178 59.2649 219.99C53.6852 216.874 48.6132 212.925 44.224 208.279C44.0973 208.152 43.9782 208.022 43.8399 207.895C43.2292 207.234 42.6301 206.562 42.0501 205.875C41.835 205.621 41.6199 205.368 41.4087 205.107C40.7199 204.267 40.0554 203.408 39.4152 202.529C39.3192 202.403 39.227 202.272 39.1349 202.145C36.5121 198.517 34.3378 194.585 32.6591 190.434C32.6054 190.308 32.5554 190.177 32.5093 190.05C31.9972 188.732 31.5299 187.391 31.1074 186.029C30.9346 185.46 30.7694 184.877 30.6235 184.308C30.5735 184.139 30.5274 183.966 30.4852 183.797C28.365 175.451 28.123 166.774 28.123 158.148C28.123 157.142 28.123 156.137 28.123 155.133C28.1845 141.179 28.3996 126.987 30.4583 113.225C30.4583 113.129 30.4852 113.033 30.5006 112.941C31.1896 108.308 32.1268 103.715 33.3082 99.1826C34.5447 94.4268 36.1249 89.7671 38.0364 85.2402C42.7722 74.1017 49.6589 63.9656 57.3061 54.5708C76.5681 30.9301 101.83 11.0843 131.397 3.65602C163.257 -4.34454 198.666 3.32187 224.365 23.7823C232.201 30.0198 239.241 37.4059 248.04 42.1878C255.722 46.3513 264.714 48.0758 272.941 44.7996C279.739 42.0917 284.164 40.7474 291.8 41.1584C307.607 42.0527 323.191 45.3167 338.029 50.8413C338.628 51.0602 339.227 51.2868 339.822 51.5134C378.504 66.3123 411.754 95.7143 429.038 133.497C429.497 134.496 429.941 135.502 430.371 136.516C440.676 160.587 444.402 188.798 433.033 212.258Z" fill="#F79530"/>
<path opacity="0.1" d="M46.2061 285.915C64.9326 285.915 80.1135 283.476 80.1135 280.468C80.1135 277.461 64.9326 275.022 46.2061 275.022C27.4796 275.022 12.2988 277.461 12.2988 280.468C12.2988 283.476 27.4796 285.915 46.2061 285.915Z" fill="#F79530"/>
<path d="M404.822 41.9265H49.4057C46.7562 41.9265 44.6084 44.0743 44.6084 46.7238V243.896C44.6084 246.545 46.7562 248.693 49.4057 248.693H404.822C407.471 248.693 409.619 246.545 409.619 243.896V46.7238C409.619 44.0743 407.471 41.9265 404.822 41.9265Z" fill="url(#paint0_linear_1404_1811)"/>
<path d="M404.283 44.8341H49.9848C47.3353 44.8341 45.1875 46.9819 45.1875 49.6314V243.208C45.1875 245.857 47.3353 248.005 49.9848 248.005H404.283C406.933 248.005 409.08 245.857 409.08 243.208V49.6314C409.08 46.9819 406.933 44.8341 404.283 44.8341Z" fill="white"/>
<path d="M404.283 44.8341H49.9848C47.3353 44.8341 45.1875 46.9819 45.1875 49.6314V243.208C45.1875 245.857 47.3353 248.005 49.9848 248.005H404.283C406.933 248.005 409.08 245.857 409.08 243.208V49.6314C409.08 46.9819 406.933 44.8341 404.283 44.8341Z" fill="white"/>
<path opacity="0.04" d="M404.283 44.8341H49.9848C47.3353 44.8341 45.1875 46.9819 45.1875 49.6314V243.208C45.1875 245.857 47.3353 248.005 49.9848 248.005H404.283C406.933 248.005 409.08 245.857 409.08 243.208V49.6314C409.08 46.9819 406.933 44.8341 404.283 44.8341Z" fill="white"/>
<path d="M407.233 42.5027H47.035C46.545 42.5027 46.0751 42.6973 45.7286 43.0438C45.3821 43.3903 45.1875 43.8602 45.1875 44.3502V52.1587H409.065V44.3502C409.065 43.8628 408.873 43.3952 408.529 43.0492C408.186 42.7032 407.72 42.5067 407.233 42.5027Z" fill="#5A5773"/>
<path d="M52.4546 49.8273C53.8334 49.8273 54.9512 48.7095 54.9512 47.3307C54.9512 45.9519 53.8334 44.8341 52.4546 44.8341C51.0758 44.8341 49.958 45.9519 49.958 47.3307C49.958 48.7095 51.0758 49.8273 52.4546 49.8273Z" fill="white"/>
<path d="M59.1763 49.8273C60.5551 49.8273 61.6728 48.7095 61.6728 47.3307C61.6728 45.9519 60.5551 44.8341 59.1763 44.8341C57.7974 44.8341 56.6797 45.9519 56.6797 47.3307C56.6797 48.7095 57.7974 49.8273 59.1763 49.8273Z" fill="white"/>
<path d="M65.8979 49.8273C67.2768 49.8273 68.3945 48.7095 68.3945 47.3307C68.3945 45.9519 67.2768 44.8341 65.8979 44.8341C64.5191 44.8341 63.4014 45.9519 63.4014 47.3307C63.4014 48.7095 64.5191 49.8273 65.8979 49.8273Z" fill="white"/>
<path opacity="0.2" d="M172.813 70.3184H75.1582V78.607H172.813V70.3184Z" fill="#F79530"/>
<path opacity="0.1" d="M379.11 103.553H75.1582V231.055H379.11V103.553Z" fill="#5A5773"/>
<path opacity="0.1" d="M253.125 111.869H247.921V101.76C247.921 90.3524 238.826 80.8693 227.418 80.6965C224.668 80.6676 221.938 81.1833 219.388 82.214C216.837 83.2447 214.516 84.77 212.558 86.7019C210.599 88.6338 209.043 90.9341 207.978 93.4704C206.912 96.0066 206.36 98.7286 206.351 101.479V111.869H201.158C198.863 111.876 196.664 112.791 195.042 114.414C193.419 116.036 192.504 118.235 192.497 120.53V162.096C192.504 164.391 193.419 166.59 195.042 168.213C196.664 169.836 198.863 170.75 201.158 170.757H253.125C255.42 170.75 257.618 169.835 259.241 168.213C260.863 166.59 261.777 164.391 261.783 162.096V120.53C261.777 118.236 260.863 116.037 259.241 114.414C257.618 112.791 255.42 111.876 253.125 111.869ZM230.176 138.89V153.777C230.181 154.565 229.886 155.326 229.352 155.905C228.817 156.484 228.082 156.838 227.295 156.896C226.885 156.915 226.475 156.851 226.09 156.707C225.705 156.563 225.353 156.343 225.056 156.059C224.759 155.775 224.522 155.434 224.36 155.057C224.199 154.679 224.115 154.272 224.115 153.861V138.882C222.71 138.197 221.579 137.056 220.906 135.645C220.233 134.234 220.058 132.636 220.409 131.113C220.761 129.59 221.618 128.231 222.842 127.257C224.065 126.284 225.582 125.754 227.146 125.754C228.709 125.754 230.226 126.284 231.45 127.257C232.673 128.231 233.53 129.59 233.882 131.113C234.234 132.636 234.059 134.234 233.386 135.645C232.713 137.056 231.581 138.197 230.176 138.882V138.89ZM241.868 111.869H212.412V101.479C212.412 97.5749 213.963 93.8303 216.724 91.0694C219.485 88.3085 223.23 86.7574 227.134 86.7574C231.039 86.7574 234.783 88.3085 237.544 91.0694C240.305 93.8303 241.856 97.5749 241.856 101.479L241.868 111.869Z" fill="black"/>
<path d="M253.125 111.101H247.921V100.992C247.921 89.5843 238.826 80.1011 227.418 79.9283C224.668 79.8994 221.938 80.4151 219.388 81.4458C216.837 82.4765 214.516 84.0018 212.558 85.9337C210.599 87.8656 209.043 90.1659 207.978 92.7022C206.912 95.2384 206.36 97.9604 206.351 100.711V111.101H201.158C198.863 111.108 196.664 112.023 195.042 113.646C193.419 115.268 192.504 117.467 192.497 119.762V161.328C192.504 163.623 193.419 165.822 195.042 167.445C196.664 169.067 198.863 169.982 201.158 169.989H253.125C255.42 169.982 257.618 169.067 259.241 167.444C260.863 165.822 261.777 163.623 261.783 161.328V119.762C261.777 117.468 260.863 115.269 259.241 113.646C257.618 112.023 255.42 111.108 253.125 111.101ZM230.176 138.121V153.009C230.181 153.797 229.886 154.558 229.352 155.137C228.817 155.716 228.082 156.07 227.295 156.128C226.885 156.147 226.475 156.083 226.09 155.939C225.705 155.795 225.353 155.575 225.056 155.291C224.759 155.007 224.522 154.666 224.36 154.288C224.199 153.911 224.115 153.504 224.115 153.093V138.114C222.71 137.429 221.579 136.287 220.906 134.876C220.233 133.465 220.058 131.868 220.409 130.345C220.761 128.821 221.618 127.462 222.842 126.489C224.065 125.516 225.582 124.986 227.146 124.986C228.709 124.986 230.226 125.516 231.45 126.489C232.673 127.462 233.53 128.821 233.882 130.345C234.234 131.868 234.059 133.465 233.386 134.876C232.713 136.287 231.581 137.429 230.176 138.114V138.121ZM241.868 111.101H212.412V100.711C212.412 96.8067 213.963 93.0621 216.724 90.3012C219.485 87.5403 223.23 85.9892 227.134 85.9892C231.039 85.9892 234.783 87.5403 237.544 90.3012C240.305 93.0621 241.856 96.8067 241.856 100.711L241.868 111.101Z" fill="#F79530"/>
<path opacity="0.1" d="M379.11 91.2819H348.345V98.545H379.11V91.2819Z" fill="#5A5773"/>
<path opacity="0.1" d="M332.006 174.556C331.978 175.074 331.904 175.588 331.787 176.092C331.787 175.95 331.787 175.87 331.756 175.858C331.641 175.827 331.779 175.24 332.006 174.556Z" fill="black"/>
<g opacity="0.1">
<path opacity="0.1" d="M339.112 109.607C339.161 108.977 339.074 108.345 338.858 107.752C338.685 107.357 338.537 106.952 338.417 106.538C338.4 106.602 338.387 106.668 338.378 106.734C338.313 107.337 338.651 107.886 338.858 108.474C338.993 108.838 339.078 109.219 339.112 109.607Z" fill="black"/>
<path opacity="0.1" d="M368.456 107.583C368.276 108.673 367.392 109.699 367.304 110.847C367.283 111.044 367.283 111.242 367.304 111.439C367.496 110.098 368.683 108.911 368.456 107.583Z" fill="black"/>
<path opacity="0.1" d="M363.705 115.368C363.609 114.669 362.764 114.385 362.319 113.832C362.045 113.468 361.897 113.026 361.896 112.572C361.865 113.286 361.877 114.016 362.319 114.554C362.76 115.092 363.432 115.322 363.647 115.875C363.702 115.712 363.721 115.539 363.705 115.368Z" fill="black"/>
</g>
<path d="M47.2969 176.142H45.1152V225.267H47.2969V176.142Z" fill="#535461"/>
<path d="M61.0089 225.117L60.8706 227.33L60.6786 230.452L60.5979 231.754L60.4059 234.881L60.3214 236.183L60.1293 239.306L57.9285 274.822C57.8346 276.351 57.1613 277.786 56.0458 278.835C54.9303 279.884 53.4566 280.468 51.9252 280.468H40.4871C38.9561 280.468 37.4829 279.884 36.368 278.835C35.2531 277.786 34.5805 276.35 34.4876 274.822L32.2753 239.306L32.0832 236.183L32.0026 234.881L31.8144 231.747L31.7337 230.445L31.5417 227.322L31.4034 225.11C31.3772 224.685 31.4382 224.26 31.5827 223.86C31.7272 223.459 31.9521 223.093 32.2436 222.783C32.5351 222.473 32.887 222.227 33.2776 222.058C33.6681 221.889 34.0891 221.802 34.5145 221.803H57.9016C58.3276 221.802 58.7491 221.889 59.14 222.059C59.5309 222.228 59.8829 222.475 60.1742 222.786C60.4655 223.097 60.6899 223.464 60.8335 223.865C60.9771 224.266 61.0368 224.692 61.0089 225.117Z" fill="#3F3D56"/>
<path d="M60.8699 227.33L60.6779 230.452H31.7292L31.5371 227.33H60.8699Z" fill="#9D9CB5"/>
<path d="M60.598 231.755L60.4059 234.881H32.0064L31.8105 231.755H60.598Z" fill="#9D9CB5"/>
<path d="M60.3212 236.183L60.1292 239.306H32.2828L32.0869 236.183H60.3212Z" fill="#9D9CB5"/>
<path d="M28.2074 194.556C40.913 203.747 46.2058 218.127 46.2058 218.127C46.2058 218.127 30.8922 217.601 18.1673 208.41C5.44248 199.218 0.168945 184.838 0.168945 184.838C0.168945 184.838 15.4979 185.364 28.2074 194.556Z" fill="#F79530"/>
<path d="M0.188477 184.838C0.188477 184.838 16.082 193.672 21.1789 200.97C26.2758 208.268 46.2061 218.131 46.2061 218.131" stroke="#535461" stroke-width="2" stroke-miterlimit="10"/>
<path d="M36.4075 176.054C43.3211 181.047 46.2056 188.883 46.2056 188.883C46.2056 188.883 37.8709 188.598 30.9534 183.594C24.036 178.589 21.1592 170.765 21.1592 170.765C21.1592 170.765 29.4939 171.03 36.4075 176.054Z" fill="#F79530"/>
<path d="M21.1592 170.746C21.1592 170.746 29.8088 175.547 32.582 179.522C35.3551 183.498 46.2056 188.863 46.2056 188.863" stroke="#535461" stroke-width="2" stroke-miterlimit="10"/>
<path d="M56.2571 188.468C48.3103 197.198 46.6318 208.605 46.6318 208.605C46.6318 208.605 57.8318 205.859 65.7748 197.129C73.7177 188.399 75.4 176.987 75.4 176.987C75.4 176.987 64.2 179.734 56.2571 188.468Z" fill="#F79530"/>
<path d="M75.4 176.987C75.4 176.987 65.0527 185.937 62.4217 192.105C59.7907 198.273 46.6318 208.621 46.6318 208.621" stroke="#535461" stroke-width="2" stroke-miterlimit="10"/>
</g>
<defs>
<linearGradient id="paint0_linear_1404_1811" x1="227.112" y1="248.693" x2="227.112" y2="41.9265" gradientUnits="userSpaceOnUse">
<stop stop-color="#808080" stop-opacity="0.25"/>
<stop offset="0.54" stop-color="#808080" stop-opacity="0.12"/>
<stop offset="1" stop-color="#808080" stop-opacity="0.1"/>
</linearGradient>
<clipPath id="clip0_1404_1811">
<rect width="440" height="314.918" fill="white" transform="translate(0 0.541016)"/>
</clipPath>
</defs>
</svg>
