<svg width="82" height="61" viewBox="0 0 82 61" fill="none" xmlns="http://www.w3.org/2000/svg">
<g clip-path="url(#clip0_1404_1719)">
<path fill-rule="evenodd" clip-rule="evenodd" d="M26.2459 29.411C26.2351 29.646 26.2297 29.8824 26.2297 30.1202C26.2297 38.5664 33.0807 45.4135 41.5321 45.4135C49.9833 45.4135 56.8344 38.5664 56.8344 30.1202C56.8344 29.8768 56.8288 29.6348 56.8176 29.3943C58.3428 29.1611 59.8641 28.893 61.3802 28.5901L61.5392 28.5583C61.5789 29.0737 61.5991 29.5945 61.5991 30.1202C61.5991 41.1964 52.6148 50.1754 41.5321 50.1754C30.4493 50.1754 21.465 41.1964 21.465 30.1202C21.465 29.602 21.4846 29.0883 21.5233 28.5801L21.5732 28.5901C23.1257 28.9003 24.6837 29.174 26.2459 29.411ZM50.4928 17.7217C47.9742 15.9003 44.8785 14.8267 41.5321 14.8267C38.1795 14.8267 35.0789 15.9042 32.5578 17.7315C30.512 17.5258 28.4716 17.2491 26.4403 16.9016C30.1182 12.7106 35.516 10.0648 41.5321 10.0648C47.5402 10.0648 52.9317 12.7037 56.6093 16.885C54.5784 17.2348 52.5383 17.5138 50.4928 17.7217ZM66.2393 27.6187C66.3217 28.4414 66.3638 29.2759 66.3638 30.1202C66.3638 43.8263 55.2463 54.9373 41.5321 54.9373C27.8178 54.9373 16.7003 43.8263 16.7003 30.1202C16.7003 29.2832 16.7417 28.4561 16.8226 27.6404L12.131 26.7026C12.0019 27.824 11.9355 28.9643 11.9355 30.1202C11.9355 46.4563 25.1864 59.6992 41.5321 59.6992C57.8778 59.6992 71.1285 46.4563 71.1285 30.1202C71.1285 28.9568 71.0614 27.8093 70.9307 26.681L66.2393 27.6187ZM66.8921 14.8622L61.8629 15.8674C57.3703 9.47833 49.9391 5.30292 41.5321 5.30292C33.1165 5.30292 25.6787 9.48679 21.1876 15.8868L16.16 14.8819C21.3382 6.28869 30.7636 0.541016 41.5321 0.541016C52.2923 0.541016 61.7115 6.27988 66.8921 14.8622Z" fill="#F57C00"/>
<mask id="mask0_1404_1719" style="mask-type:alpha" maskUnits="userSpaceOnUse" x="0" y="13" width="82" height="16">
<path d="M41 28.0889C16.2672 29.3327 0.5 13.8744 0.5 13.8744C0.5 13.8744 25.2765 22.4209 41 22.4209C56.7235 22.4209 81.5 13.8744 81.5 13.8744C81.5 13.8744 65.7328 26.8451 41 28.0889Z" fill="white"/>
</mask>
<g mask="url(#mask0_1404_1719)">
<path d="M0.500296 13.8744L6.09662 -2.3304L-11.5117 26.112L0.500296 13.8744ZM41.0003 28.0889L40.1383 10.9677L41.0003 28.0889ZM81.5003 13.8744L92.4014 27.1101L75.904 -2.3304L81.5003 13.8744ZM0.500296 13.8744C-11.5117 26.112 -11.5067 26.1169 -11.5016 26.1218C-11.4999 26.1236 -11.4948 26.1286 -11.4912 26.1321C-11.4841 26.1391 -11.4767 26.1462 -11.4691 26.1536C-11.4539 26.1685 -11.4376 26.1843 -11.4202 26.2011C-11.3856 26.2346 -11.3468 26.2719 -11.3038 26.313C-11.2179 26.3951 -11.1153 26.4919 -10.9962 26.6026C-10.7581 26.8237 -10.4537 27.1005 -10.0843 27.4242C-9.34664 28.0709 -8.34457 28.9099 -7.09097 29.8713C-4.59368 31.7861 -1.03827 34.2319 3.47055 36.6096C12.4685 41.3548 25.6588 46.025 41.8623 45.2101L40.1383 10.9677C31.609 11.3966 24.5493 8.95957 19.4804 6.28647C16.9559 4.95512 15.0237 3.61409 13.7917 2.66943C13.1807 2.20091 12.7577 1.84202 12.5365 1.64815C12.4264 1.55161 12.368 1.49747 12.363 1.49285C12.3606 1.49058 12.3717 1.50081 12.3964 1.52446C12.4088 1.53629 12.4246 1.55149 12.4439 1.57017C12.4536 1.5795 12.4641 1.58972 12.4754 1.60081C12.4811 1.60636 12.4871 1.61213 12.4932 1.61813C12.4963 1.62112 12.5011 1.62579 12.5026 1.62728C12.5074 1.632 12.5123 1.63678 0.500296 13.8744ZM41.8623 45.2101C57.0359 44.4471 69.4127 40.0936 77.9907 35.9492C82.2948 33.8697 85.71 31.8109 88.1282 30.2087C89.34 29.4057 90.3099 28.7119 91.0245 28.1796C91.3821 27.9134 91.6766 27.6868 91.9064 27.5066C92.0213 27.4165 92.1202 27.3378 92.2027 27.2715C92.2439 27.2383 92.2812 27.2082 92.3143 27.1814C92.3309 27.1678 92.3464 27.1552 92.3609 27.1433C92.3681 27.1374 92.3752 27.1316 92.3819 27.1261C92.3853 27.1234 92.3901 27.1194 92.3918 27.1179C92.3966 27.114 92.4014 27.1101 81.5003 13.8744C70.5992 0.638688 70.6039 0.63489 70.6085 0.631143C70.6099 0.629959 70.6144 0.626256 70.6172 0.623886C70.623 0.619143 70.6286 0.61459 70.6339 0.610227C70.6446 0.601501 70.6544 0.59353 70.6633 0.586305C70.6811 0.571855 70.6953 0.560381 70.7059 0.551796C70.7273 0.53463 70.7345 0.528983 70.728 0.53415C70.7147 0.544532 70.6464 0.597905 70.5245 0.688674C70.2802 0.870619 69.8251 1.19985 69.1722 1.63239C67.8611 2.50105 65.7889 3.76259 63.0595 5.08126C57.5707 7.73313 49.6975 10.487 40.1383 10.9677L41.8623 45.2101ZM81.5003 13.8744C75.904 -2.33039 75.9054 -2.3309 75.9068 -2.33137C75.9071 -2.33148 75.9083 -2.33192 75.909 -2.33215C75.9103 -2.33261 75.9113 -2.33293 75.9119 -2.33313C75.9131 -2.33354 75.9128 -2.33343 75.911 -2.33282C75.9075 -2.33162 75.8981 -2.32842 75.8832 -2.32329C75.8531 -2.31303 75.8003 -2.29506 75.7259 -2.26989C75.5767 -2.21954 75.3411 -2.14049 75.027 -2.03683C74.3982 -1.82936 73.4584 -1.5244 72.2725 -1.15442C69.8917 -0.411748 66.5645 0.578588 62.7991 1.56456C54.8229 3.65318 46.5108 5.27805 41.0003 5.27805V39.5637C51.2133 39.5637 63.1512 36.9154 71.4941 34.7308C75.8883 33.5801 79.7379 32.4338 82.4941 31.574C83.8766 31.1428 84.9953 30.78 85.783 30.5201C86.177 30.39 86.489 30.2855 86.7106 30.2107C86.8214 30.1733 86.9097 30.1433 86.9743 30.1212C87.0067 30.1101 87.0331 30.1011 87.0536 30.094C87.0638 30.0905 87.0724 30.0876 87.0797 30.0851C87.0832 30.0838 87.0864 30.0827 87.0893 30.0817C87.0907 30.0813 87.0925 30.0806 87.0932 30.0804C87.095 30.0797 87.0966 30.0792 81.5003 13.8744ZM41.0003 5.27805C35.4898 5.27805 27.1777 3.65318 19.2015 1.56456C15.4361 0.578588 12.1089 -0.411748 9.72812 -1.15442C8.54214 -1.5244 7.60238 -1.82936 6.97362 -2.03683C6.65951 -2.14049 6.42385 -2.21954 6.27479 -2.26989C6.20028 -2.29506 6.14748 -2.31303 6.11744 -2.32329C6.10241 -2.32842 6.09308 -2.33162 6.08956 -2.33282C6.08781 -2.33343 6.0875 -2.33354 6.08867 -2.33313C6.08927 -2.33293 6.09022 -2.33261 6.09155 -2.33215C6.0922 -2.33192 6.09348 -2.33148 6.0938 -2.33137C6.09517 -2.3309 6.09662 -2.33039 0.500296 13.8744C-5.09603 30.0792 -5.09438 30.0797 -5.09265 30.0804C-5.09194 30.0806 -5.09011 30.0813 -5.08869 30.0817C-5.08586 30.0827 -5.08264 30.0838 -5.07904 30.0851C-5.07186 30.0876 -5.06315 30.0905 -5.05294 30.094C-5.03251 30.1011 -5.00607 30.1101 -4.97373 30.1212C-4.90907 30.1433 -4.82081 30.1733 -4.71002 30.2107C-4.48847 30.2855 -4.17645 30.39 -3.78237 30.5201C-2.99475 30.78 -1.87602 31.1428 -0.493517 31.574C2.26265 32.4338 6.11224 33.5801 10.5065 34.7308C18.8494 36.9154 30.7872 39.5637 41.0003 39.5637V5.27805Z" fill="#F57C00"/>
</g>
</g>
<defs>
<clipPath id="clip0_1404_1719">
<rect width="81" height="60" fill="white" transform="translate(0.5 0.541016)"/>
</clipPath>
</defs>
</svg>
