<svg width="136" height="50" viewBox="0 0 136 50" fill="none" xmlns="http://www.w3.org/2000/svg">
<path fill-rule="evenodd" clip-rule="evenodd" d="M26.6296 2.54563C26.1341 2.29006 25.5718 2.15557 24.9996 2.15571C24.4273 2.15559 23.8651 2.29008 23.3694 2.54563L4.0434 12.512C3.54782 12.7676 3.13631 13.1351 2.85018 13.5778C2.56407 14.0205 2.41345 14.5226 2.41346 15.0338V34.9664C2.41345 35.4775 2.56407 35.9796 2.85018 36.4223C3.13629 36.8648 3.54782 37.2325 4.0434 37.488L23.3694 47.4544C23.865 47.7099 24.4272 47.8445 24.9995 47.8445C25.5718 47.8445 26.1339 47.7099 26.6296 47.4544L45.9556 37.488C46.4513 37.2325 46.8627 36.8648 47.1487 36.4223C47.4348 35.9796 47.5855 35.4775 47.5855 34.9664V15.0338C47.5855 14.5226 47.4348 14.0205 47.1487 13.5778C46.8627 13.1351 46.4513 12.7676 45.9556 12.512L26.6296 2.54563ZM22.163 0.67894C23.0256 0.234483 24.0038 0.00034737 24.9996 0H25.0006C25.9965 0.000378982 26.9748 0.234512 27.8373 0.67894L47.1633 10.6453C48.0246 11.0911 48.7399 11.7311 49.2379 12.5012C49.7356 13.2713 49.9985 14.1445 50 15.0338V34.9664C49.9982 35.8557 49.7353 36.7291 49.2374 37.4993C48.7394 38.2692 48.0238 38.9093 47.1623 39.3549L27.8363 49.3213C26.9738 49.766 25.9955 50 24.9996 50C24.0038 50 23.0255 49.766 22.163 49.3213L2.83692 39.3549C1.97551 38.9091 1.26015 38.2692 0.76232 37.499C0.264497 36.7291 0.00163253 35.8557 0 34.9664V15.0338C0.00158164 14.1445 0.264393 13.2713 0.762174 12.5011C1.25996 11.731 1.97528 11.0911 2.83667 10.6453L22.163 0.67894ZM11.8723 23.4917C12.1662 23.491 12.4574 23.5422 12.7289 23.6429C13.0004 23.7434 13.2469 23.891 13.4541 24.0771L16.4483 26.7515L22.5959 21.2604C23.2336 20.6918 24.0978 20.3725 24.9989 20.3725C25.8999 20.3725 26.7641 20.6918 27.4017 21.2604L35.9497 28.8955L38.5916 26.5358C39.0116 26.1616 39.5802 25.9514 40.1735 25.9514C40.7666 25.9514 41.3355 26.1616 41.7552 26.5358L45.2158 29.6293V16.0793C45.2158 15.6217 45.081 15.1723 44.8246 14.776C44.5684 14.3798 44.2001 14.0508 43.7565 13.822L26.4579 4.90115C26.0143 4.67234 25.5109 4.55188 24.9986 4.55188C24.4863 4.55188 23.983 4.67234 23.5392 4.90115L6.24044 13.822C5.79682 14.0508 5.42841 14.3798 5.17224 14.776C4.91608 15.1723 4.78119 15.6217 4.78109 16.0793V28.9969L10.2894 24.0769C10.4967 23.8906 10.7435 23.7429 11.0151 23.6427C11.2869 23.5422 11.5782 23.4908 11.8723 23.4917ZM4.78109 31.946V33.9219C4.78126 34.3415 4.89492 34.7548 5.11238 35.1267C5.32985 35.4989 5.64467 35.8182 6.03006 36.0583L14.798 28.2265L12.3672 26.0553C12.3021 25.9973 12.2249 25.9512 12.14 25.9198C12.055 25.8883 11.9639 25.8721 11.872 25.8721C11.78 25.8721 11.689 25.8883 11.604 25.9198C11.519 25.9512 11.4418 25.9973 11.3768 26.0553L4.78109 31.946ZM43.9675 36.058L37.6017 30.371L39.6778 28.5155C39.8091 28.3982 39.9873 28.3323 40.1732 28.3323C40.3589 28.3323 40.537 28.3982 40.6684 28.5155L45.2162 32.5777V33.9216C45.216 34.3412 45.1025 34.7545 44.8851 35.1265C44.6677 35.4984 44.353 35.818 43.9675 36.058ZM35.9517 31.8448L34.3014 30.371L25.7534 22.7361C25.5539 22.5581 25.2836 22.4583 25.0017 22.4583C24.7198 22.4583 24.4495 22.5581 24.25 22.7361L18.1024 28.2272L16.4518 29.7015L8.11768 37.1446L23.5415 45.0991C23.9852 45.3279 24.4885 45.4483 25.0008 45.4483C25.5131 45.4483 26.0166 45.3279 26.4602 45.0991L41.8839 37.1446L35.9517 31.8448Z" fill="#212121"/>
<path d="M81.892 13.448C82.452 14.036 82.732 14.736 82.732 15.548V26.804C82.732 27.616 82.452 28.316 81.892 28.904L80.548 30.248C79.988 30.808 79.302 31.088 78.49 31.088H71.602C70.482 31.088 69.922 31.648 69.922 32.768V39.74C69.922 40.86 69.362 41.42 68.242 41.42H67.78C66.66 41.42 66.1 40.86 66.1 39.74V12.944C66.1 11.824 66.66 11.264 67.78 11.264H78.49C79.302 11.264 79.988 11.544 80.548 12.104L81.892 13.448ZM78.952 16.766C78.952 15.646 78.392 15.086 77.272 15.086H71.644C70.524 15.086 69.964 15.646 69.964 16.766V25.586C69.964 26.706 70.524 27.266 71.644 27.266H77.23C78.35 27.266 78.91 26.706 78.91 25.586L78.952 16.766ZM100.176 31.886C100.176 33.006 99.6158 33.566 98.4958 33.566H92.0278C90.9078 33.566 90.3478 34.126 90.3478 35.246V35.834C90.3478 36.954 90.9078 37.514 92.0278 37.514H98.4958C99.6158 37.514 100.176 38.074 100.176 39.194V39.656C100.176 40.776 99.6158 41.336 98.4958 41.336H90.7678C89.9558 41.336 89.2698 41.042 88.7098 40.454L87.3658 39.11C86.8058 38.55 86.5258 37.864 86.5258 37.052V24.872C86.5258 24.06 86.8058 23.374 87.3658 22.814L88.7098 21.47C89.2698 20.91 89.9558 20.63 90.7678 20.63H95.9338C96.7458 20.63 97.4318 20.91 97.9918 21.47L99.3358 22.814C99.8958 23.374 100.176 24.06 100.176 24.872V31.886ZM90.3478 28.526C90.3478 29.646 90.9078 30.206 92.0278 30.206H94.6738C95.7938 30.206 96.3538 29.646 96.3538 28.526V26.09C96.3538 24.97 95.7938 24.41 94.6738 24.41H92.0278C90.9078 24.41 90.3478 24.97 90.3478 26.09V28.526ZM108.652 41.336C107.84 41.336 107.154 41.056 106.594 40.496L105.208 39.11C104.648 38.55 104.368 37.864 104.368 37.052V32.18C104.368 31.76 104.438 31.396 104.578 31.088C104.718 30.752 104.942 30.43 105.25 30.122L106.594 28.778C107.154 28.218 107.84 27.938 108.652 27.938H112.642C113.762 27.938 114.322 27.378 114.322 26.258V26.132C114.322 25.012 113.762 24.452 112.642 24.452H106.174C105.054 24.452 104.494 23.892 104.494 22.772V22.31C104.494 21.19 105.054 20.63 106.174 20.63H113.86C114.672 20.63 115.358 20.91 115.918 21.47L117.304 22.856C117.864 23.416 118.144 24.102 118.144 24.914V39.656C118.144 40.776 117.584 41.336 116.464 41.336H108.652ZM114.322 33.062C114.322 31.942 113.762 31.382 112.642 31.382H109.87C108.75 31.382 108.19 31.942 108.19 33.062V36.212C108.19 37.332 108.75 37.892 109.87 37.892H112.642C113.762 37.892 114.322 37.332 114.322 36.212V33.062ZM128.622 35.582C128.286 34.966 127.908 34.658 127.488 34.658C127.236 34.658 127.026 34.784 126.858 35.036C126.69 35.288 126.606 35.652 126.606 36.128V39.698C126.606 40.818 126.046 41.378 124.926 41.378H124.464C123.344 41.378 122.784 40.818 122.784 39.698V12.482C122.784 11.362 123.344 10.802 124.464 10.802H124.926C126.046 10.802 126.606 11.362 126.606 12.482V24.326C126.606 24.774 126.676 25.124 126.816 25.376C126.984 25.628 127.194 25.754 127.446 25.754C127.838 25.754 128.244 25.488 128.664 24.956L131.184 21.722C131.744 20.994 132.416 20.63 133.2 20.63H133.83C134.278 20.63 134.628 20.728 134.88 20.924C135.132 21.12 135.258 21.372 135.258 21.68C135.258 21.96 135.146 22.282 134.922 22.646L130.848 28.694C130.596 29.058 130.47 29.45 130.47 29.87C130.47 30.262 130.568 30.64 130.764 31.004L135.258 39.362C135.426 39.698 135.51 40.006 135.51 40.286C135.51 40.622 135.384 40.888 135.132 41.084C134.88 41.28 134.544 41.378 134.124 41.378H133.242C132.318 41.378 131.646 40.986 131.226 40.202L128.622 35.582Z" fill="#212121"/>
</svg>
