<svg width="312" height="282" viewBox="0 0 312 282" fill="none" xmlns="http://www.w3.org/2000/svg">
<g clip-path="url(#clip0_1426_1811)">
<path d="M59.502 192.103C59.1036 192.291 58.6568 192.353 58.2222 192.279C57.7877 192.205 57.3864 191.999 57.0727 191.69C56.759 191.38 56.548 190.981 56.4684 190.548C56.3889 190.114 56.4445 189.667 56.6277 189.266C56.5947 189.046 56.5709 188.888 56.5378 188.669C56.5019 188.633 56.4658 188.597 56.4296 188.562C52.7838 184.97 46.6074 187.587 46.6192 192.704C46.6297 197.246 46.204 201.978 47.4104 206.281C47.9445 208.183 48.8044 209.978 49.9519 211.585C42.7366 204.929 37.0368 196.799 33.239 187.747C32.2883 185.475 31.4655 183.151 30.7743 180.786C30.2093 178.847 29.7308 176.888 29.3387 174.907C27.2227 164.158 27.6868 153.06 30.6929 142.524C33.0496 139.583 34.4479 135.99 34.6996 132.229C34.7944 130.875 34.6928 129.515 34.3979 128.19C34.0724 128.38 33.7341 128.554 33.3992 128.72C33.2943 128.771 33.1838 128.824 33.0788 128.874L33.0392 128.893C32.6678 129.068 32.2537 129.132 31.8467 129.078C31.4398 129.023 31.0573 128.852 30.7454 128.585C30.4335 128.318 30.2054 127.966 30.0886 127.572C29.9718 127.179 29.9713 126.76 30.0871 126.366C30.1594 126.121 30.2317 125.876 30.3041 125.631C30.412 125.254 30.5279 124.881 30.6357 124.504C30.6506 124.466 30.6633 124.428 30.6737 124.389C30.7989 123.958 30.9265 123.534 31.0517 123.103C30.2702 122.566 29.3751 122.216 28.4361 122.081C25.1966 121.644 22.0472 124.201 21.1511 127.34C20.2494 130.482 21.2739 133.934 23.1579 136.601C24.7691 138.886 26.9534 140.685 29.243 142.308C29.1773 142.547 29.1037 142.784 29.0381 143.023C27.8445 147.419 27.0846 151.921 26.7693 156.465C25.4692 152.066 23.1431 148.037 19.9825 144.712C16.914 141.665 12.7525 139.757 8.89865 137.624C4.26952 135.063 -1.24463 139.329 0.249425 144.405C0.263894 144.454 0.278475 144.503 0.293172 144.552C0.756118 144.607 1.21658 144.678 1.67454 144.765C2.25113 144.878 2.7802 145.162 3.19244 145.581C3.60468 145.999 3.88086 146.533 3.98478 147.111C4.08871 147.689 4.01553 148.285 3.77485 148.821C3.53416 149.357 3.1372 149.808 2.63596 150.115L2.58463 150.146C3.28232 151.44 4.07742 152.68 4.96302 153.854C7.47099 157.116 10.6258 159.825 14.2297 161.81C17.8337 163.796 21.809 165.016 25.9064 165.393C26.1738 165.414 26.4355 165.437 26.7005 165.453C27.0496 171.611 28.198 177.699 30.1169 183.561C31.2597 187.015 32.68 190.371 34.3639 193.597L34.2974 193.485C32.0204 190.068 28.6338 187.541 24.7095 186.331C18.9028 184.587 12.2491 185.832 6.39276 184.926C3.5737 184.49 1.43907 187.468 2.91853 189.907C2.94214 189.946 2.96585 189.985 2.98968 190.024C3.80319 190.016 4.61637 190.06 5.4245 190.153C5.88746 190.208 6.34792 190.279 6.80586 190.367C7.38246 190.479 7.91155 190.764 8.3238 191.182C8.73604 191.601 9.01221 192.134 9.11614 192.713C9.22006 193.291 9.14689 193.887 8.9062 194.423C8.66551 194.959 8.26854 195.41 7.7673 195.716L7.71591 195.748C7.67877 195.77 7.64724 195.79 7.61015 195.812C9.98322 198.151 12.7413 200.065 15.7637 201.469C19.4737 203.147 23.4874 204.05 27.5587 204.122C31.6299 204.194 35.6729 203.433 39.4398 201.887L39.4455 201.884C42.3174 205.89 45.5977 209.586 49.2337 212.913L64.9845 206.331C64.9678 206.132 64.9431 205.931 64.9208 205.734C63.5012 206.435 62.0011 206.96 60.454 207.296C61.0233 205.374 61.5879 203.44 62.1573 201.518C62.1721 201.48 62.1848 201.442 62.1953 201.402C62.4814 200.421 62.7754 199.442 63.0615 198.461L63.0614 198.46C62.1529 196.197 60.9568 194.061 59.5027 192.103L59.502 192.103ZM26.6375 164.159L26.6411 164.145L26.6422 164.171L26.6375 164.159ZM36.2921 197.068L36.0292 196.82C35.9429 196.597 35.8509 196.377 35.7509 196.154C35.7249 196.092 35.6876 196.034 35.6617 195.972C35.8753 196.34 36.0832 196.711 36.3025 197.077L36.2921 197.068Z" fill="#F2F2F2"/>
<path d="M204.04 83.8617C203.453 86.2284 203.173 88.6608 203.207 91.099L203.207 91.1C203.85 91.8954 204.498 92.6847 205.141 93.4801C205.166 93.5122 205.192 93.5428 205.22 93.5719C206.487 95.126 207.754 96.6924 209.02 98.2465C207.463 98.5327 205.877 98.6272 204.296 98.5279C204.352 98.7176 204.407 98.9134 204.468 99.1031H221.539C223.61 94.631 225.212 89.9558 226.317 85.1527H226.323C230.395 85.1269 234.419 84.2697 238.148 82.6336C241.876 80.9975 245.232 78.6171 248.008 75.6383C250.255 73.1774 252.062 70.3481 253.349 67.2742C253.306 67.2681 253.27 67.2619 253.227 67.2558L253.167 67.2467C252.587 67.1571 252.047 66.8943 251.618 66.4926C251.189 66.0909 250.892 65.569 250.765 64.9954C250.638 64.4218 250.687 63.8232 250.906 63.2779C251.125 62.7327 251.503 62.2664 251.992 61.94C252.38 61.683 252.778 61.4399 253.184 61.2106C253.893 60.8125 254.627 60.459 255.381 60.1522C255.388 60.1071 255.394 60.0621 255.401 60.0171C255.826 57.1963 252.708 55.2719 250.275 56.7611C245.221 59.8546 238.602 61.2718 233.917 65.1204C230.762 67.7497 228.612 71.3869 227.829 75.418L227.81 75.5465C228.12 71.9214 228.137 68.2771 227.859 64.6493C227.369 58.5003 226.082 52.441 224.029 46.624C224.268 46.5077 224.5 46.3854 224.739 46.263C228.374 44.3349 231.571 41.6766 234.131 38.4547C236.69 35.2329 238.557 31.5171 239.613 27.5401C239.977 26.1156 240.233 24.6654 240.378 23.202L240.318 23.1929C239.738 23.1033 239.198 22.8405 238.769 22.4388C238.34 22.0371 238.043 21.5152 237.916 20.9416C237.789 20.368 237.838 19.7694 238.057 19.2242C238.276 18.679 238.654 18.2126 239.143 17.8862C239.531 17.6293 239.929 17.3862 240.335 17.1569C240.33 17.106 240.324 17.0551 240.319 17.0042C239.74 11.7453 233.007 9.93477 229.724 14.0833C226.99 17.5371 223.886 20.9018 222.23 24.8969C220.596 29.1837 220.003 33.7972 220.5 38.3579C218.457 34.2869 216.02 30.4259 213.224 26.8304C213.071 26.6346 212.912 26.4449 212.759 26.2491C214.245 23.869 215.567 21.3665 216.173 18.6376C216.882 15.4498 216.497 11.8704 214.453 9.31899C212.416 6.76754 208.524 5.62338 205.704 7.2754C204.889 7.76182 204.198 8.42977 203.685 9.22717C203.966 9.57594 204.248 9.91857 204.529 10.2673C204.554 10.2994 204.58 10.3301 204.609 10.3592C204.853 10.6651 205.104 10.9649 205.349 11.2708C205.51 11.4689 205.672 11.6671 205.833 11.8655C206.091 12.1843 206.253 12.5711 206.297 12.9794C206.341 13.3876 206.266 13.7999 206.081 14.1665C205.896 14.5332 205.609 14.8386 205.255 15.046C204.9 15.2534 204.494 15.3539 204.083 15.3355L204.04 15.3336C203.923 15.3274 203.801 15.3213 203.685 15.3152C203.311 15.2907 202.932 15.2601 202.559 15.2112C202.797 16.547 203.228 17.8413 203.838 19.0537C205.52 22.4265 208.196 25.2026 211.504 27.0078C218.34 35.5694 223.048 45.6305 225.24 56.3648C225.644 58.3411 225.958 60.3337 226.183 62.3427C226.457 64.7907 226.594 67.2522 226.593 69.7156C226.579 79.5322 224.455 89.2311 220.364 98.1547C220.803 96.2288 220.904 94.2414 220.664 92.2809C220.118 87.8455 217.9 83.6435 216.158 79.4486C214.196 74.7223 207.489 74.6897 205.509 79.409C205.49 79.4559 205.47 79.5027 205.451 79.5496C205.505 79.7651 205.544 79.9198 205.598 80.1353C205.922 80.4345 206.146 80.826 206.239 81.2567C206.333 81.6874 206.292 82.1365 206.122 82.5432C205.952 82.9498 205.661 83.2944 205.289 83.5302C204.916 83.766 204.48 83.8816 204.04 83.8613L204.04 83.8617ZM223.588 45.4186L223.579 45.3943L223.588 45.4064V45.4186ZM227.364 79.5053C227.425 79.0831 227.474 78.6609 227.529 78.2387C227.529 78.306 227.517 78.3733 227.517 78.4407C227.51 78.6854 227.51 78.924 227.517 79.1627L227.37 79.493L227.364 79.5053Z" fill="#F2F2F2"/>
<path d="M186.841 189.054H134.615C133.876 189.055 133.168 189.35 132.646 189.873C132.124 190.396 131.832 191.105 131.833 191.844V274.345H189.63V191.844C189.631 191.477 189.559 191.114 189.418 190.776C189.278 190.437 189.073 190.13 188.814 189.871C188.555 189.612 188.247 189.406 187.909 189.266C187.57 189.126 187.207 189.054 186.841 189.054ZM160.904 235.931C159.27 235.923 157.706 235.271 156.551 234.116C155.396 232.961 154.744 231.397 154.737 229.764V220.248C154.737 218.612 155.386 217.044 156.543 215.887C157.699 214.731 159.268 214.081 160.904 214.081C162.539 214.081 164.108 214.731 165.264 215.887C166.421 217.044 167.071 218.612 167.071 220.248V229.764C167.063 231.397 166.411 232.961 165.256 234.116C164.101 235.271 162.537 235.923 160.904 235.931Z" fill="#E6E6E6"/>
<path d="M131.653 271.707V279.666C131.654 280.079 131.818 280.474 132.11 280.766C132.402 281.057 132.797 281.222 133.209 281.222H188.254C188.666 281.22 189.06 281.056 189.352 280.764C189.643 280.473 189.808 280.078 189.81 279.666V271.707L131.653 271.707Z" fill="#CCCCCC"/>
<path d="M273.322 60.3008H50.0766C48.1585 60.3038 46.3199 61.0671 44.9637 62.4234C43.6074 63.7796 42.8441 65.6182 42.8411 67.5362V218.184C42.8429 220.102 43.6058 221.941 44.9623 223.298C46.3189 224.654 48.1582 225.417 50.0766 225.419H273.322C275.241 225.417 277.08 224.654 278.437 223.298C279.793 221.941 280.556 220.102 280.558 218.184V67.5362C280.555 65.6182 279.792 63.7796 278.435 62.4234C277.079 61.0671 275.241 60.3038 273.322 60.3008Z" fill="#E6E6E6"/>
<path d="M271.458 65.5249H51.9423C50.915 65.5273 49.9306 65.9371 49.2051 66.6644C48.4795 67.3916 48.0721 68.3769 48.072 69.4042V216.316C48.0732 217.342 48.4813 218.326 49.2069 219.052C49.9324 219.777 50.9162 220.185 51.9423 220.186H271.458C272.484 220.185 273.468 219.777 274.193 219.052C274.919 218.326 275.327 217.342 275.328 216.316V69.4042C275.328 68.3769 274.921 67.3916 274.195 66.6644C273.47 65.9371 272.485 65.5273 271.458 65.5249Z" fill="white"/>
<path d="M275.328 69.4042V197.277C258.438 202.2 240.403 201.486 223.955 195.243C207.507 189 193.54 177.568 184.17 162.678C174.8 147.788 170.537 130.25 172.025 112.72C173.514 95.1899 180.674 78.6221 192.42 65.5249H271.458C272.485 65.5273 273.47 65.9371 274.195 66.6644C274.921 67.3916 275.328 68.3769 275.328 69.4042Z" fill="#E6E6E6"/>
<path d="M260.424 85.7684H55.023C54.8094 85.7639 54.606 85.6758 54.4566 85.5231C54.3071 85.3704 54.2234 85.1653 54.2234 84.9516C54.2234 84.7379 54.3071 84.5327 54.4566 84.3801C54.606 84.2274 54.8094 84.1393 55.023 84.1348H260.424C260.638 84.1393 260.841 84.2274 260.991 84.3801C261.14 84.5327 261.224 84.7379 261.224 84.9516C261.224 85.1653 261.14 85.3704 260.991 85.5231C260.841 85.6758 260.638 85.7639 260.424 85.7684Z" fill="#CACACA"/>
<path d="M69.0047 79.9641C71.6485 79.9641 73.7917 77.7731 73.7917 75.0704C73.7917 72.3677 71.6485 70.1768 69.0047 70.1768C66.361 70.1768 64.2178 72.3677 64.2178 75.0704C64.2178 77.7731 66.361 79.9641 69.0047 79.9641Z" fill="#3F3D56"/>
<path d="M85.5416 79.9641C88.1854 79.9641 90.3286 77.7731 90.3286 75.0704C90.3286 72.3677 88.1854 70.1768 85.5416 70.1768C82.8978 70.1768 80.7546 72.3677 80.7546 75.0704C80.7546 77.7731 82.8978 79.9641 85.5416 79.9641Z" fill="#3F3D56"/>
<path d="M102.078 79.9641C104.722 79.9641 106.865 77.7731 106.865 75.0704C106.865 72.3677 104.722 70.1768 102.078 70.1768C99.4345 70.1768 97.2913 72.3677 97.2913 75.0704C97.2913 77.7731 99.4345 79.9641 102.078 79.9641Z" fill="#3F3D56"/>
<path d="M250.468 71.3896H238.721C238.488 71.3943 238.266 71.49 238.103 71.6563C237.94 71.8226 237.849 72.0462 237.849 72.2791C237.849 72.512 237.94 72.7356 238.103 72.9019C238.266 73.0682 238.488 73.1639 238.721 73.1685H250.468C250.701 73.1639 250.922 73.0682 251.086 72.9019C251.249 72.7356 251.34 72.512 251.34 72.2791C251.34 72.0462 251.249 71.8226 251.086 71.6563C250.922 71.49 250.701 71.3943 250.468 71.3896Z" fill="#3F3D56"/>
<path d="M250.468 74.7285H238.721C238.488 74.7332 238.266 74.8289 238.103 74.9952C237.94 75.1615 237.849 75.3851 237.849 75.618C237.849 75.8509 237.94 76.0745 238.103 76.2408C238.266 76.4071 238.488 76.5028 238.721 76.5074H250.468C250.701 76.5028 250.922 76.4071 251.086 76.2408C251.249 76.0745 251.34 75.8509 251.34 75.618C251.34 75.3851 251.249 75.1615 251.086 74.9952C250.922 74.8289 250.701 74.7332 250.468 74.7285Z" fill="#3F3D56"/>
<path d="M250.468 78.0625H238.721C238.488 78.0671 238.266 78.1629 238.103 78.3292C237.94 78.4955 237.849 78.7191 237.849 78.952C237.849 79.1848 237.94 79.4084 238.103 79.5747C238.266 79.741 238.488 79.8368 238.721 79.8414H250.468C250.701 79.8368 250.922 79.741 251.086 79.5747C251.249 79.4084 251.34 79.1848 251.34 78.952C251.34 78.7191 251.249 78.4955 251.086 78.3292C250.922 78.1629 250.701 78.0671 250.468 78.0625Z" fill="#3F3D56"/>
<path d="M159.528 41.7967C159.956 44.1484 154.22 48.1738 151.868 48.6019C150.739 48.8074 149.574 48.556 148.63 47.9028C147.686 47.2496 147.041 46.2483 146.835 45.119L146.834 45.1106C146.408 42.7585 148.226 41.9262 150.578 41.5004C152.93 41.0746 159.102 39.4447 159.528 41.7967Z" fill="white"/>
<path d="M228.504 178.2C231.781 173.937 233.352 169.647 232.014 168.618C230.676 167.59 226.934 170.212 223.657 174.475C220.38 178.738 218.809 183.028 220.147 184.057C221.486 185.086 225.227 182.464 228.504 178.2Z" fill="#2F2E41"/>
<path d="M246.339 192.429C257.094 192.429 265.812 183.711 265.812 172.957C265.812 162.203 257.094 153.485 246.339 153.485C235.585 153.485 226.867 162.203 226.867 172.957C226.867 183.711 235.585 192.429 246.339 192.429Z" fill="#2F2E41"/>
<path d="M255.212 188.239H249.297V198.838H255.212V188.239Z" fill="#2F2E41"/>
<path d="M243.381 188.239H237.466V198.838H243.381V188.239Z" fill="#2F2E41"/>
<path d="M250.283 200.81C253.006 200.81 255.213 199.982 255.213 198.961C255.213 197.94 253.006 197.112 250.283 197.112C247.56 197.112 245.353 197.94 245.353 198.961C245.353 199.982 247.56 200.81 250.283 200.81Z" fill="#2F2E41"/>
<path d="M238.451 200.563C241.174 200.563 243.381 199.735 243.381 198.714C243.381 197.693 241.174 196.866 238.451 196.866C235.729 196.866 233.522 197.693 233.522 198.714C233.522 199.735 235.729 200.563 238.451 200.563Z" fill="#2F2E41"/>
<path d="M245.846 174.682C249.522 174.682 252.501 171.703 252.501 168.027C252.501 164.352 249.522 161.372 245.846 161.372C242.171 161.372 239.191 164.352 239.191 168.027C239.191 171.703 242.171 174.682 245.846 174.682Z" fill="white"/>
<path d="M245.394 173.41C246.619 173.41 247.612 172.417 247.612 171.192C247.612 169.967 246.619 168.974 245.394 168.974C244.169 168.974 243.176 169.967 243.176 171.192C243.176 172.417 244.169 173.41 245.394 173.41Z" fill="#3F3D56"/>
<path d="M265.228 154.848C266.8 147.807 261.774 140.692 254.002 138.956C246.23 137.221 238.655 141.522 237.082 148.564C235.51 155.605 240.661 158.202 248.433 159.938C256.205 161.673 263.655 161.89 265.228 154.848Z" fill="#2196F3"/>
<path d="M269.355 189.863C270.874 189.127 270.203 184.607 267.857 179.769C265.51 174.931 262.377 171.606 260.858 172.343C259.339 173.079 260.01 177.598 262.357 182.437C264.703 187.275 267.836 190.6 269.355 189.863Z" fill="#2F2E41"/>
<path d="M255.904 179.982C255.904 181.887 250.997 185.651 245.552 185.651C240.106 185.651 235.001 180.285 235.001 178.379C235.001 176.474 240.106 178.749 245.552 178.749C250.997 178.749 255.904 178.076 255.904 179.982Z" fill="white"/>
<path d="M231.741 257.988C242.495 257.988 251.213 249.27 251.213 238.516C251.213 227.762 242.495 219.044 231.741 219.044C220.987 219.044 212.269 227.762 212.269 238.516C212.269 249.27 220.987 257.988 231.741 257.988Z" fill="#2F2E41"/>
<path d="M228.783 253.798H222.867V264.397H228.783V253.798Z" fill="#2F2E41"/>
<path d="M240.614 253.798H234.698V264.397H240.614V253.798Z" fill="#2F2E41"/>
<path d="M231.803 267.982C232.239 267.058 230.596 265.368 228.135 264.205C225.673 263.042 223.323 262.849 222.887 263.772C222.452 264.695 224.094 266.386 226.556 267.548C229.018 268.711 231.367 268.905 231.803 267.982Z" fill="#2F2E41"/>
<path d="M243.745 267.482C244.128 266.536 242.394 264.94 239.87 263.917C237.347 262.895 234.991 262.833 234.607 263.779C234.224 264.725 235.958 266.321 238.482 267.344C241.005 268.366 243.361 268.428 243.745 267.482Z" fill="#2F2E41"/>
<path d="M212.852 220.408C211.28 213.366 216.306 206.251 224.078 204.516C231.85 202.78 239.426 207.082 240.998 214.123C242.57 221.165 237.419 223.762 229.647 225.497C221.875 227.233 214.425 227.449 212.852 220.408Z" fill="#2196F3"/>
<path d="M254.888 230.524C256.832 224.883 256.972 219.816 255.201 219.206C253.431 218.595 250.419 222.673 248.475 228.314C246.531 233.954 246.391 239.022 248.162 239.632C249.933 240.242 252.944 236.164 254.888 230.524Z" fill="#2F2E41"/>
<path d="M216.046 236.608C217.371 235.284 215.026 230.79 210.809 226.57C206.592 222.349 202.099 220.001 200.774 221.325C199.45 222.649 201.794 227.143 206.011 231.364C210.228 235.584 214.721 237.932 216.046 236.608Z" fill="#2F2E41"/>
<path d="M84.3802 273.007C95.1344 273.007 103.852 264.289 103.852 253.535C103.852 242.781 95.1344 234.062 84.3802 234.062C73.626 234.062 64.908 242.781 64.908 253.535C64.908 264.289 73.626 273.007 84.3802 273.007Z" fill="#2F2E41"/>
<path d="M81.4222 268.817H75.5066V279.416H81.4222V268.817Z" fill="#2F2E41"/>
<path d="M93.2535 268.817H87.3379V279.416H93.2535V268.817Z" fill="#2F2E41"/>
<path d="M80.436 281.387C83.1586 281.387 85.3657 280.56 85.3657 279.539C85.3657 278.518 83.1586 277.69 80.436 277.69C77.7134 277.69 75.5063 278.518 75.5063 279.539C75.5063 280.56 77.7134 281.387 80.436 281.387Z" fill="#2F2E41"/>
<path d="M92.2676 281.141C94.9902 281.141 97.1973 280.313 97.1973 279.292C97.1973 278.271 94.9902 277.443 92.2676 277.443C89.545 277.443 87.3379 278.271 87.3379 279.292C87.3379 280.313 89.545 281.141 92.2676 281.141Z" fill="#2F2E41"/>
<path d="M65.4912 235.426C63.919 228.385 68.9449 221.269 76.7171 219.534C84.4893 217.799 92.0645 222.1 93.6368 229.141C95.2091 236.183 90.0582 238.78 82.286 240.515C74.5138 242.251 67.0635 242.467 65.4912 235.426Z" fill="#3F3D56"/>
<path d="M109.348 258.531C110.224 256.875 106.659 253.272 101.385 250.482C96.1114 247.692 91.1263 246.773 90.2505 248.429C89.3747 250.084 92.94 253.688 98.2137 256.477C103.487 259.267 108.472 260.187 109.348 258.531Z" fill="#2F2E41"/>
<path d="M57.2751 171.361C57.1733 171.92 57.1826 172.494 57.3025 173.049C57.4225 173.605 57.6507 174.131 57.9741 174.599C58.2975 175.066 58.7098 175.465 59.1875 175.773C59.6651 176.081 60.1988 176.292 60.758 176.394C61.3171 176.496 61.8909 176.486 62.4464 176.366C63.002 176.246 63.5285 176.018 63.9959 175.695C64.4633 175.371 64.8624 174.959 65.1704 174.481C65.4784 174.004 65.6894 173.47 65.7912 172.911L65.7927 172.903C66.2185 170.551 64.3999 169.718 62.0479 169.292C59.6958 168.867 57.7008 169.009 57.2751 171.361Z" fill="white"/>
<path d="M311.462 281.219L10.0011 281.358C9.93027 281.358 9.86009 281.345 9.7946 281.318C9.7291 281.291 9.66957 281.251 9.61942 281.201C9.56926 281.151 9.52947 281.092 9.50231 281.026C9.47516 280.961 9.46118 280.891 9.46118 280.82C9.46118 280.749 9.47516 280.679 9.50231 280.614C9.52947 280.548 9.56926 280.489 9.61942 280.439C9.66957 280.389 9.7291 280.349 9.7946 280.322C9.86009 280.295 9.93027 280.281 10.0011 280.282L311.462 280.143C311.604 280.143 311.741 280.2 311.841 280.301C311.942 280.402 311.998 280.538 311.998 280.681C311.998 280.823 311.942 280.96 311.841 281.061C311.741 281.162 311.604 281.219 311.462 281.219Z" fill="#CACACA"/>
</g>
<defs>
<clipPath id="clip0_1426_1811">
<rect width="312" height="281.387" fill="white"/>
</clipPath>
</defs>
</svg>
