<svg width="82" height="61" viewBox="0 0 82 61" fill="none" xmlns="http://www.w3.org/2000/svg">
<g clip-path="url(#clip0_1399_1534)">
<path fill-rule="evenodd" clip-rule="evenodd" d="M26.2459 29.4832C26.2351 29.7181 26.2297 29.9546 26.2297 30.1923C26.2297 38.6386 33.0807 45.4856 41.5321 45.4856C49.9833 45.4856 56.8344 38.6386 56.8344 30.1923C56.8344 29.949 56.8288 29.707 56.8176 29.4664C58.3428 29.2333 59.8641 28.9652 61.3802 28.6622L61.5392 28.6304C61.5789 29.1458 61.5991 29.6667 61.5991 30.1923C61.5991 41.2685 52.6148 50.2475 41.5321 50.2475C30.4493 50.2475 21.465 41.2685 21.465 30.1923C21.465 29.6741 21.4846 29.1605 21.5233 28.6522L21.5732 28.6622C23.1257 28.9725 24.6837 29.2461 26.2459 29.4832ZM50.4928 17.7938C47.9742 15.9725 44.8785 14.8989 41.5321 14.8989C38.1795 14.8989 35.0789 15.9763 32.5578 17.8036C30.512 17.5979 28.4716 17.3213 26.4403 16.9737C30.1182 12.7828 35.516 10.137 41.5321 10.137C47.5402 10.137 52.9317 12.7758 56.6093 16.9572C54.5784 17.307 52.5383 17.5859 50.4928 17.7938ZM66.2393 27.6909C66.3217 28.5135 66.3638 29.348 66.3638 30.1923C66.3638 43.8984 55.2463 55.0094 41.5321 55.0094C27.8178 55.0094 16.7003 43.8984 16.7003 30.1923C16.7003 29.3553 16.7417 28.5282 16.8226 27.7126L12.131 26.7748C12.0019 27.8961 11.9355 29.0364 11.9355 30.1923C11.9355 46.5284 25.1864 59.7714 41.5321 59.7714C57.8778 59.7714 71.1285 46.5284 71.1285 30.1923C71.1285 29.029 71.0614 27.8814 70.9307 26.7532L66.2393 27.6909ZM66.8921 14.9343L61.8629 15.9395C57.3703 9.55047 49.9391 5.37506 41.5321 5.37506C33.1165 5.37506 25.6787 9.55893 21.1876 15.959L16.16 14.954C21.3382 6.36084 30.7636 0.613159 41.5321 0.613159C52.2923 0.613159 61.7115 6.35203 66.8921 14.9343Z" fill="#E91E63"/>
<mask id="mask0_1399_1534" style="mask-type:alpha" maskUnits="userSpaceOnUse" x="0" y="13" width="82" height="16">
<path d="M41 28.161C16.2672 29.4048 0.5 13.9465 0.5 13.9465C0.5 13.9465 25.2765 22.493 41 22.493C56.7235 22.493 81.5 13.9465 81.5 13.9465C81.5 13.9465 65.7328 26.9173 41 28.161Z" fill="white"/>
</mask>
<g mask="url(#mask0_1399_1534)">
<path d="M0.500296 13.9465L6.09662 -2.25825L-11.5117 26.1842L0.500296 13.9465ZM41.0003 28.161L40.1383 11.0399L41.0003 28.161ZM81.5003 13.9465L92.4014 27.1823L75.904 -2.25825L81.5003 13.9465ZM0.500296 13.9465C-11.5117 26.1842 -11.5067 26.189 -11.5016 26.194C-11.4999 26.1958 -11.4948 26.2007 -11.4912 26.2043C-11.4841 26.2112 -11.4767 26.2184 -11.4691 26.2258C-11.4539 26.2406 -11.4376 26.2565 -11.4202 26.2732C-11.3856 26.3067 -11.3468 26.3441 -11.3038 26.3851C-11.2179 26.4672 -11.1153 26.5641 -10.9962 26.6747C-10.7581 26.8959 -10.4537 27.1726 -10.0843 27.4964C-9.34664 28.143 -8.34457 28.9821 -7.09097 29.9434C-4.59368 31.8583 -1.03827 34.3041 3.47055 36.6818C12.4685 41.4269 25.6588 46.0971 41.8623 45.2823L40.1383 11.0399C31.609 11.4687 24.5493 9.03171 19.4804 6.35861C16.9559 5.02726 15.0237 3.68623 13.7917 2.74158C13.1807 2.27305 12.7577 1.91417 12.5365 1.72029C12.4264 1.62376 12.368 1.56961 12.363 1.56499C12.3606 1.56272 12.3717 1.57296 12.3964 1.59661C12.4088 1.60843 12.4246 1.62363 12.4439 1.64231C12.4536 1.65164 12.4641 1.66186 12.4754 1.67296C12.4811 1.6785 12.4871 1.68427 12.4932 1.69027C12.4963 1.69326 12.5011 1.69793 12.5026 1.69942C12.5074 1.70415 12.5123 1.70892 0.500296 13.9465ZM41.8623 45.2823C57.0359 44.5192 69.4127 40.1658 77.9907 36.0213C82.2948 33.9419 85.71 31.883 88.1282 30.2808C89.34 29.4779 90.3099 28.7841 91.0245 28.2518C91.3821 27.9855 91.6766 27.7589 91.9064 27.5787C92.0213 27.4886 92.1202 27.41 92.2027 27.3437C92.2439 27.3105 92.2812 27.2804 92.3143 27.2535C92.3309 27.24 92.3464 27.2273 92.3609 27.2154C92.3681 27.2095 92.3752 27.2038 92.3819 27.1983C92.3853 27.1955 92.3901 27.1915 92.3918 27.1901C92.3966 27.1862 92.4014 27.1823 81.5003 13.9465C70.5992 0.710831 70.6039 0.707034 70.6085 0.703287C70.6099 0.702102 70.6144 0.6984 70.6172 0.696029C70.623 0.691287 70.6286 0.686734 70.6339 0.682371C70.6446 0.673644 70.6544 0.665674 70.6633 0.658449C70.6811 0.643999 70.6953 0.632525 70.7059 0.623939C70.7273 0.606773 70.7345 0.601126 70.728 0.606294C70.7147 0.616676 70.6464 0.670049 70.5245 0.760818C70.2802 0.942763 69.8251 1.27199 69.1722 1.70453C67.8611 2.5732 65.7889 3.83473 63.0595 5.15341C57.5707 7.80527 49.6975 10.5591 40.1383 11.0399L41.8623 45.2823ZM81.5003 13.9465C75.904 -2.25825 75.9054 -2.25876 75.9068 -2.25922C75.9071 -2.25934 75.9083 -2.25978 75.909 -2.26C75.9103 -2.26046 75.9113 -2.26079 75.9119 -2.26099C75.9131 -2.26139 75.9128 -2.26129 75.911 -2.26068C75.9075 -2.25948 75.8981 -2.25628 75.8832 -2.25115C75.8531 -2.24089 75.8003 -2.22292 75.7259 -2.19775C75.5767 -2.14739 75.3411 -2.06835 75.027 -1.96469C74.3982 -1.75721 73.4584 -1.45225 72.2725 -1.08228C69.8917 -0.339604 66.5645 0.650732 62.7991 1.6367C54.8229 3.72532 46.5108 5.3502 41.0003 5.3502V39.6359C51.2133 39.6359 63.1512 36.9875 71.4941 34.8029C75.8883 33.6523 79.7379 32.506 82.4941 31.6462C83.8766 31.2149 84.9953 30.8522 85.783 30.5923C86.177 30.4622 86.489 30.3577 86.7106 30.2828C86.8214 30.2454 86.9097 30.2154 86.9743 30.1933C87.0067 30.1823 87.0331 30.1732 87.0536 30.1662C87.0638 30.1626 87.0724 30.1597 87.0797 30.1572C87.0832 30.156 87.0864 30.1548 87.0893 30.1539C87.0907 30.1534 87.0925 30.1527 87.0932 30.1525C87.095 30.1519 87.0966 30.1513 81.5003 13.9465ZM41.0003 5.3502C35.4898 5.3502 27.1777 3.72532 19.2015 1.6367C15.4361 0.650732 12.1089 -0.339604 9.72812 -1.08228C8.54214 -1.45225 7.60238 -1.75721 6.97362 -1.96469C6.65951 -2.06835 6.42385 -2.14739 6.27479 -2.19775C6.20028 -2.22292 6.14748 -2.24089 6.11744 -2.25115C6.10241 -2.25628 6.09308 -2.25948 6.08956 -2.26068C6.08781 -2.26129 6.0875 -2.26139 6.08867 -2.26099C6.08927 -2.26079 6.09022 -2.26046 6.09155 -2.26C6.0922 -2.25978 6.09348 -2.25934 6.0938 -2.25922C6.09517 -2.25876 6.09662 -2.25825 0.500296 13.9465C-5.09603 30.1513 -5.09438 30.1519 -5.09265 30.1525C-5.09194 30.1527 -5.09011 30.1534 -5.08869 30.1539C-5.08586 30.1548 -5.08264 30.156 -5.07904 30.1572C-5.07186 30.1597 -5.06315 30.1626 -5.05294 30.1662C-5.03251 30.1732 -5.00607 30.1823 -4.97373 30.1933C-4.90907 30.2154 -4.82081 30.2454 -4.71002 30.2828C-4.48847 30.3577 -4.17645 30.4622 -3.78237 30.5923C-2.99475 30.8522 -1.87602 31.2149 -0.493517 31.6462C2.26265 32.506 6.11224 33.6523 10.5065 34.8029C18.8494 36.9875 30.7872 39.6359 41.0003 39.6359V5.3502Z" fill="#E91E63"/>
</g>
</g>
<defs>
<clipPath id="clip0_1399_1534">
<rect width="81" height="60" fill="white" transform="translate(0.5 0.613159)"/>
</clipPath>
</defs>
</svg>
