<?xml version="1.0" encoding="utf-8"?>
<!-- Generator: Adobe Illustrator 27.8.1, SVG Export Plug-In . SVG Version: 6.00 Build 0)  -->
<svg version="1.1" id="Слой_1"
     width="1000"
     height="1000"
     xmlns="http://www.w3.org/2000/svg" xmlns:xlink="http://www.w3.org/1999/xlink" x="0px" y="0px"
     viewBox="230 260 500 550"
     style="background-color: #94DB77" xml:space="preserve">
<style type="text/css">
	.st0{fill:#94DB77;}
	.st1{fill:#4AAD20;}
	.st2{fill:#388616;}
	.st3{fill:#388716;}
	.st4{fill:#E9F3E4;}
</style>
<g>
	<path class="st0" d="M191.12,540.08c0-91.78,0.03-183.55-0.1-275.33c0-3.5,0.49-4.75,5.66-4.75
		c187.59,0.13,375.17,0.13,562.76,0.02c4.6,0,5.54,0.74,5.54,4.34c-0.14,183.72-0.14,367.44,0.02,551.16c0,4-1.5,4.47-6.02,4.47
		c-187.38-0.09-374.75-0.1-562.13,0.01c-4.78,0-5.86-0.84-5.86-4.59C191.15,723.63,191.12,631.86,191.12,540.08z"/>
	<path class="st1" d="M392.26,705.96c-15.49,0-30.97,0.08-46.46-0.01c-27.64-0.16-48.2-20.68-48.58-48.38
		c-0.07-5.33-0.15-10.66,0.03-15.98c0.11-3.36-0.95-4.99-4.53-4.7c-2.48,0.2-4.99,0.09-7.49,0.01c-8.13-0.27-13.53-5.25-13.85-13.41
		c-0.32-8.31-0.32-16.66-0.01-24.97c0.32-8.47,5.67-13.29,14.21-13.51c11.63-0.29,11.61-0.29,11.64-12
		c0.01-5.65-0.08-11.29,0.76-16.94c3.28-22.14,22.75-39.61,45.11-40.03c11.98-0.23,23.98-0.18,35.96-0.02
		c3.68,0.05,4.97-1.15,4.91-4.87c-0.19-10.49-0.2-20.98,0.01-31.47c0.08-3.67-1.01-6.02-4.04-8.3c-7.69-5.8-10.15-15.12-6.86-23.66
		c3.12-8.12,12.07-13.98,20.39-13.36c9.18,0.68,16.98,6.99,19,15.86c2.02,8.81-0.75,16.21-7.99,21.57c-2.6,1.93-3.55,3.91-3.5,7.04
		c0.15,10.32,0.28,20.65-0.04,30.97c-0.14,4.7,1.1,6.44,6.07,6.28c10.81-0.35,21.64-0.17,32.47-0.09
		c27.05,0.22,47.25,20.24,47.77,47.31c0.1,4.99,0.02,9.99,0.04,14.99c0.02,6.71,0.03,6.71,6.51,6.73c2.16,0.01,4.33-0.06,6.49,0.04
		c7.67,0.37,12.72,5.36,12.87,13.06c0.17,8.49,0.16,16.99,0.01,25.48c-0.13,7.76-4.96,12.71-12.68,13.27
		c-2.32,0.17-4.7,0.35-6.98,0.02c-5.3-0.76-6.63,1.65-6.3,6.51c0.35,5.14,0.15,10.32,0.04,15.48
		c-0.56,26.78-20.78,46.86-47.52,47.08C423.9,706.06,408.08,705.95,392.26,705.96z"/>
	<path class="st1" d="M598.2,362.07c59.99,0.04,108.7,48.78,108.71,108.8c0.01,60.11-49.08,109.12-109.16,108.98
		C538.06,579.71,489,530.4,489.14,470.66C489.28,410.82,538.28,362.04,598.2,362.07z"/>
	<path class="st2" d="M394.26,632.93c10.49,0,20.97-0.03,31.46,0.01c6.21,0.02,7.8,1.8,7.19,7.77c-1.91,18.95-18.5,34.51-37.53,35.2
		c-18.51,0.67-35.81-13.26-39.38-31.72c-0.28-1.47-0.67-2.93-0.81-4.41c-0.48-4.88,1.13-6.77,6.11-6.81
		C372.29,632.87,383.28,632.93,394.26,632.93z"/>
	<path class="st3" d="M428.83,602c-9.71-0.04-17.23-7.4-17.3-16.93c-0.06-9.66,7.68-17.16,17.64-17.09
		c9.16,0.07,16.77,7.73,16.81,16.93C446.02,594.33,438.29,602.04,428.83,602z"/>
	<path class="st3" d="M339.05,584.57c0.14-9.63,7.62-16.73,17.48-16.58c9.73,0.15,16.68,7.47,16.54,17.43
		c-0.13,9.74-7.45,16.71-17.39,16.58C346.04,601.87,338.91,594.4,339.05,584.57z"/>
	<path class="st4" d="M598.39,405.96c35.8-0.01,64.91,29.38,64.43,65.03c-0.49,35.73-30.23,64.62-65.81,63.8
		c-8.91-0.21-17.55-2.04-25.56-6.01c-2.93-1.46-5.49-1.58-8.53-0.72c-8.48,2.4-17.03,4.53-25.54,6.84
		c-2.86,0.78-3.98,0.46-2.97-2.94c2.37-7.97,4.29-16.07,6.69-24.03c1.07-3.56,0.85-6.48-0.81-9.95
		C519.91,455.33,551.14,405.98,598.39,405.96z"/>
	<path class="st1" d="M548.99,520.52c1.54-5.81,2.66-10.77,4.2-15.6c0.89-2.79,0.54-4.93-0.91-7.47
		c-18.93-33.1,0.22-73.52,37.83-80.02c28.33-4.9,56.38,15.3,60.95,43.88c4.74,29.61-15.08,57.38-43.86,61.82
		c-12.32,1.9-23.85,0-34.68-6c-2.55-1.41-4.83-1.63-7.54-0.84C559.94,517.75,554.84,518.98,548.99,520.52z"/>
	<path class="st4" d="M615.43,501.21c-7.36-0.22-13.98-3.02-20.17-6.59c-11.52-6.64-20.22-16.22-26.57-27.83
		c-4.58-8.38-3.88-16.68,1.39-22.88c4.54-5.35,10.44-4.55,13.13,1.78c0.85,1.99,1.52,4.08,2.57,5.95c2.35,4.2,2.04,7.87-1.68,11.1
		c-2.2,1.92-1.79,3.85-0.29,6.12c4.63,6.96,10.62,12.24,18.05,16.08c3.6,1.86,6.4,1.78,8.35-1.92c2.73-5.2,6.35-5.45,10.9-2.5
		c1.38,0.9,2.97,1.49,4.46,2.22c6.33,3.1,7.13,9.14,1.71,13.92C623.96,499.62,620.04,501.38,615.43,501.21z"/>
</g>
</svg>
